<svg xmlns="http://www.w3.org/2000/svg" xmlns:xlink="http://www.w3.org/1999/xlink" width="61" height="32" viewBox="0 0 61 32">
  <defs>
    <clipPath id="clip-Logo-light-full">
      <rect width="61" height="32"/>
    </clipPath>
  </defs>
  <g id="Logo-light-full" clip-path="url(#clip-Logo-light-full)">
    <g id="شعار_الوزارة" data-name="شعار الوزارة" transform="translate(-37.4 -138.578)">
      <path id="Path_68" data-name="Path 68" d="M3063.991,557.306a1,1,0,0,1-1.708-.7,1.041,1.041,0,0,1,1.009-1.009,1.013,1.013,0,0,1,.7.29.986.986,0,0,1,.29.716.965.965,0,0,1-.292.7" transform="translate(-2968.339 -407.53)" fill="#fff"/>
      <path id="Path_69" data-name="Path 69" d="M2680.018,610.036a.773.773,0,1,1,1.047-.312.67.67,0,0,1-.132.175.773.773,0,0,1-.915.137" transform="translate(-2592.57 -459.558)" fill="#fff"/>
      <path id="Path_70" data-name="Path 70" d="M2871.686,560.57a.954.954,0,0,1-.175-1.335l.007-.007a.956.956,0,0,1,1.5,1.18.435.435,0,0,1-.074.088.951.951,0,0,1-1.263.074" transform="translate(-2780.817 -410.741)" fill="#fff"/>
      <path id="Path_71" data-name="Path 71" d="M2514.6,693.717a.534.534,0,0,1-.381.161.542.542,0,0,1-.381-.161.511.511,0,0,1-.155-.377.538.538,0,0,1,.917-.384.544.544,0,0,1,0,.761" transform="translate(-2429.637 -542.258)" fill="#fff"/>
      <path id="Path_72" data-name="Path 72" d="M1085.706,561.991a1,1,0,0,0-.7-1.709,1.041,1.041,0,0,0-1.009,1.009,1.014,1.014,0,0,0,.29.7.986.986,0,0,0,.716.29.974.974,0,0,0,.7-.292" transform="translate(-1025.748 -412.132)" fill="#fff"/>
      <path id="Path_73" data-name="Path 73" d="M1493.7,614.533h0a.708.708,0,0,1-.175.132.776.776,0,1,1,.312-1.047.768.768,0,0,1-.137.915" transform="translate(-1426.763 -464.103)" fill="#fff"/>
      <path id="Path_74" data-name="Path 74" d="M1288.366,564.848h0a.433.433,0,0,1-.089.074.956.956,0,0,1-1.18-1.5l.007-.007a.959.959,0,0,1,1.261,1.438" transform="translate(-1224.83 -415.01)" fill="#fff"/>
      <path id="Path_75" data-name="Path 75" d="M2533.94,465.731a.78.78,0,1,1,1.021-.406.71.71,0,0,1-.164.24.79.79,0,0,1-.857.166" transform="translate(-2449.074 -317.821)" fill="#fff"/>
      <path id="Path_76" data-name="Path 76" d="M3034.649,142.836a1.247,1.247,0,0,1-.906.368,1.272,1.272,0,0,1-1.265-1.265,1.309,1.309,0,0,1,1.263-1.263,1.239,1.239,0,0,1,.906.368,1.3,1.3,0,0,1,.368.906,1.269,1.269,0,0,1-.366.886" transform="translate(-2939.073 -0.097)" fill="#fff"/>
      <path id="Path_77" data-name="Path 77" d="M2237.137,426.186a.644.644,0,0,1,.294-1.254.653.653,0,0,1,.476.776.636.636,0,0,1-.168.3.659.659,0,0,1-.6.175" transform="translate(-2157.598 -279.208)" fill="#fff"/>
      <path id="Path_78" data-name="Path 78" d="M2384.02,330.241a.752.752,0,0,1-.455-.969.759.759,0,0,1,1.427.516l.005.005a.82.82,0,0,1-.177.272.775.775,0,0,1-.8.175" transform="translate(-2301.823 -184.802)" fill="#fff"/>
      <path id="Path_79" data-name="Path 79" d="M2533.631,254.047a.976.976,0,0,1-.438-1.315.986.986,0,1,1,1.761.886,1.232,1.232,0,0,1-.181.251.984.984,0,0,1-1.142.179" transform="translate(-2448.693 -109.597)" fill="#fff"/>
      <path id="Path_80" data-name="Path 80" d="M2693.163,200.328a1.153,1.153,0,1,1,1.588-.318.755.755,0,0,1-.137.171,1.138,1.138,0,0,1-1.451.146" transform="translate(-2605.372 -56.598)" fill="#fff"/>
      <path id="Path_81" data-name="Path 81" d="M2865.479,168.221a1.157,1.157,0,0,1,1.5-1.761,1.167,1.167,0,0,1,.13,1.629c-.024.025-.042.042-.065.065a1.152,1.152,0,0,1-1.564.067" transform="translate(-2774.693 -25.149)" fill="#fff"/>
      <path id="Path_82" data-name="Path 82" d="M3051.8,358.809a1.117,1.117,0,0,1-.8.323,1.118,1.118,0,0,1-1.113-1.111,1.156,1.156,0,0,1,1.121-1.121,1.134,1.134,0,0,1,.789.332,1.143,1.143,0,0,1,0,1.577" transform="translate(-2956.174 -212.419)" fill="#fff"/>
      <path id="Path_83" data-name="Path 83" d="M2232.195,650.635a.581.581,0,1,1,.5-.168.588.588,0,0,1-.5.168" transform="translate(-2152.726 -499.698)" fill="#fff"/>
      <path id="Path_84" data-name="Path 84" d="M2375.576,546.116a.707.707,0,1,1,.879-.487.752.752,0,0,1-.186.3.7.7,0,0,1-.693.182" transform="translate(-2293.514 -396.858)" fill="#fff"/>
      <path id="Path_85" data-name="Path 85" d="M2696.207,403.789a.932.932,0,0,1,.973-1.59.929.929,0,0,1,.308,1.281.873.873,0,0,1-.132.171.929.929,0,0,1-1.149.137" transform="translate(-2608.436 -256.77)" fill="#fff"/>
      <path id="Path_86" data-name="Path 86" d="M2868.982,369.973a1.02,1.02,0,0,1-.143-1.42,1,1,0,0,1,1.413-.135.99.99,0,0,1,.142,1.406l.007.007-.07.07a1.012,1.012,0,0,1-1.35.072" transform="translate(-2778.167 -223.504)" fill="#fff"/>
      <path id="Path_87" data-name="Path 87" d="M1086.237,142.749a1.247,1.247,0,0,0,.368-.906,1.272,1.272,0,0,0-1.265-1.265,1.309,1.309,0,0,0-1.263,1.263,1.239,1.239,0,0,0,.368.906,1.3,1.3,0,0,0,.906.368,1.276,1.276,0,0,0,.886-.366" transform="translate(-1025.827)" fill="#fff"/>
      <path id="Path_88" data-name="Path 88" d="M1951.011,430.739h0a.643.643,0,0,1-.3.168.651.651,0,0,1-.776-.476.644.644,0,0,1,1.254-.294.651.651,0,0,1-.175.6" transform="translate(-1876.044 -283.85)" fill="#fff"/>
      <path id="Path_89" data-name="Path 89" d="M1791.416,334.43h0a.805.805,0,0,1-.272.177l-.005-.005a.756.756,0,0,1-.965-.449.765.765,0,0,1,.449-.976.755.755,0,0,1,.971.455.766.766,0,0,1-.177.8" transform="translate(-1719.138 -189.078)" fill="#fff"/>
      <path id="Path_90" data-name="Path 90" d="M1616.968,258.174h0a1.159,1.159,0,0,1-.251.18.986.986,0,1,1-.886-1.761.987.987,0,0,1,1.137,1.581" transform="translate(-1547.454 -113.819)" fill="#fff"/>
      <path id="Path_91" data-name="Path 91" d="M1439.407,204.937h0a.714.714,0,0,1-.171.139,1.151,1.151,0,1,1,.318-1.588,1.133,1.133,0,0,1-.146,1.449" transform="translate(-1372.816 -61.268)" fill="#fff"/>
      <path id="Path_92" data-name="Path 92" d="M1266.854,175.245h0l-.065.065a1.167,1.167,0,0,1-1.629-.132,1.156,1.156,0,1,1,1.694.067" transform="translate(-1203.377 -32.11)" fill="#fff"/>
      <path id="Path_93" data-name="Path 93" d="M1085.909,363.3a1.117,1.117,0,0,0,.323-.8,1.118,1.118,0,0,0-1.111-1.113,1.156,1.156,0,0,0-1.12,1.12,1.133,1.133,0,0,0,.332.789,1.145,1.145,0,0,0,1.577,0" transform="translate(-1025.752 -216.832)" fill="#fff"/>
      <path id="Path_94" data-name="Path 94" d="M1961.371,655.075h0a.586.586,0,0,1-.339.164.592.592,0,0,1-.159-1.173.594.594,0,0,1,.5,1.009" transform="translate(-1886.299 -504.218)" fill="#fff"/>
      <path id="Path_95" data-name="Path 95" d="M1805.434,550.334h0a.764.764,0,0,1-.3.186.725.725,0,1,1,.3-.186" transform="translate(-1732.984 -401.173)" fill="#fff"/>
      <path id="Path_96" data-name="Path 96" d="M1639.764,470.337h0a.73.73,0,0,1-.24.164.774.774,0,1,1,.406-1.019.793.793,0,0,1-.166.855" transform="translate(-1570.187 -322.514)" fill="#fff"/>
      <path id="Path_97" data-name="Path 97" d="M1460.475,408.256h0a.874.874,0,0,1-.172.132.93.93,0,0,1-1.281-.309.932.932,0,0,1,1.59-.973.93.93,0,0,1-.137,1.149" transform="translate(-1393.877 -261.287)" fill="#fff"/>
      <path id="Path_98" data-name="Path 98" d="M1274.8,374.632h0l-.07.07-.007-.007a.988.988,0,0,1-1.406-.143,1,1,0,0,1,.135-1.413,1.006,1.006,0,0,1,1.348,1.492" transform="translate(-1211.428 -228.146)" fill="#fff"/>
      <path id="Path_99" data-name="Path 99" d="M1685.317,698.3a.534.534,0,0,0,.161-.381.543.543,0,0,0-.161-.381.514.514,0,0,0-.377-.155.538.538,0,0,0-.384.917.522.522,0,0,0,.384.155.514.514,0,0,0,.377-.155" transform="translate(-1615.318 -546.758)" fill="#fff"/>
      <path id="Path_100" data-name="Path 100" d="M2095.71,535.814a.584.584,0,0,1-.422.168.583.583,0,0,1-.6-.594.618.618,0,0,1,.6-.6.6.6,0,0,1,.6.6.6.6,0,0,1-.173.426" transform="translate(-2018.208 -387.102)" fill="#fff"/>
      <path id="Path_101" data-name="Path 101" d="M2098.617,778.329a.545.545,0,0,1-.926-.388.561.561,0,0,1,.541-.541.544.544,0,0,1,.388.157.554.554,0,0,1,.157.388.534.534,0,0,1-.161.384" transform="translate(-2021.153 -625.332)" fill="#fff"/>
      <g id="Group_13" data-name="Group 13" transform="translate(39.4 158.255)">
        <path id="Path_102" data-name="Path 102" d="M1028.15,1540.762a.873.873,0,0,0-.144.52l-.005.061,0,1.7h.336l0-1.2h.567v-.217h-.567v-.015l0-.253a1.418,1.418,0,0,1,.032-.319.576.576,0,0,1,.1-.206.353.353,0,0,1,.162-.108.685.685,0,0,1,.193-.027h.013v0h.179v-.2h-.191a1.12,1.12,0,0,0-.4.065.747.747,0,0,0-.285.2" transform="translate(-1010.162 -1532.918)" fill="#fff"/>
        <path id="Path_103" data-name="Path 103" d="M748.5,1574.1h-.336l0,1.084a1.417,1.417,0,0,1-.033.319.559.559,0,0,1-.1.206.353.353,0,0,1-.162.108.609.609,0,0,1-.164.025.693.693,0,0,1-.166-.025.353.353,0,0,1-.162-.108.559.559,0,0,1-.1-.206,1.413,1.413,0,0,1-.032-.319l0-1.084H746.9l0,1.1.005.059a.874.874,0,0,0,.144.52.706.706,0,0,0,.285.195,1.063,1.063,0,0,0,.339.061h.013v0h0a.076.076,0,0,1,.029,0h0v0h.013a1.062,1.062,0,0,0,.339-.061.378.378,0,0,0,.047-.023l.027-.014.02-.009,0,.365a1.414,1.414,0,0,1-.032.319.56.56,0,0,1-.1.206.353.353,0,0,1-.162.108.685.685,0,0,1-.2.029l.018.195a1.14,1.14,0,0,0,.382-.065.706.706,0,0,0,.285-.195.873.873,0,0,0,.144-.52l.005-.061,0-1.083,0-.025Z" transform="translate(-734.134 -1565.912)" fill="#fff"/>
        <path id="Path_104" data-name="Path 104" d="M238.675,1541.208a.175.175,0,0,0,.175-.175v-.058a.175.175,0,1,0-.35,0v.058a.174.174,0,0,0,.175.175" transform="translate(-234.908 -1533.213)" fill="#fff"/>
        <rect id="Rectangle_1" data-name="Rectangle 1" width="0.357" height="1.913" transform="translate(3.591 8.21)" fill="#fff"/>
        <path id="Path_105" data-name="Path 105" d="M436.775,1541.208a.175.175,0,0,0,.175-.175v-.058a.175.175,0,1,0-.35,0v.058a.175.175,0,0,0,.175.175" transform="translate(-429.433 -1533.213)" fill="#fff"/>
        <rect id="Rectangle_2" data-name="Rectangle 2" width="0.357" height="1.938" transform="translate(7.167 8.188)" fill="#fff"/>
        <path id="Path_106" data-name="Path 106" d="M1850.175,1541.166a.175.175,0,0,0,.175-.175v-.016a.175.175,0,1,0-.35,0v.016a.176.176,0,0,0,.175.175" transform="translate(-1817.331 -1533.213)" fill="#fff"/>
        <rect id="Rectangle_3" data-name="Rectangle 3" width="0.357" height="1.938" transform="translate(32.666 8.188)" fill="#fff"/>
        <path id="Path_107" data-name="Path 107" d="M1394.854,1575.377V1574.1h-.35l0,1.014a.927.927,0,0,0,.219.662.707.707,0,0,0,.285.195,1.044,1.044,0,0,0,.336.063v0h1.01V1574.1h-.357v1.747h-.671a.473.473,0,0,1-.467-.471" transform="translate(-1370.049 -1565.912)" fill="#fff"/>
        <path id="Path_108" data-name="Path 108" d="M1260.118,1541.563a.951.951,0,0,0-.218.66v.1a.919.919,0,0,0,.218.66.705.705,0,0,0,.285.195,1.051,1.051,0,0,0,.336.063h.013v0h1.054V1540.7h-.357v.6h-.7l-.011,0a1.09,1.09,0,0,0-.336.063.717.717,0,0,0-.285.2m.66-.072h.669v1.561h-.669a.467.467,0,0,1-.467-.467v-.624a.469.469,0,0,1,.467-.469" transform="translate(-1237.878 -1533.115)" fill="#fff"/>
        <path id="Path_109" data-name="Path 109" d="M2026.86,1574.165a1.107,1.107,0,0,0-.336-.063h-.013v0H2025.5v1.938h.357v-1.75h.669a.468.468,0,0,1,.467.467v1.281h.364l0-1.018a.947.947,0,0,0-.217-.66.709.709,0,0,0-.285-.193" transform="translate(-1989.664 -1565.912)" fill="#fff"/>
        <path id="Path_110" data-name="Path 110" d="M1523.1,1575.087v.238a.938.938,0,0,0,.215.653.712.712,0,0,0,.283.193,1.077,1.077,0,0,0,.332.063h.012v0h.841v-.186h-.814a.463.463,0,0,1-.462-.462s-.014-.215-.014-.334.014-.3.014-.307a.463.463,0,0,1,.462-.462h.814v-.186l-.853,0a1.081,1.081,0,0,0-.332.063.727.727,0,0,0-.283.193.755.755,0,0,0-.215.529" transform="translate(-1496.329 -1566.108)" fill="#fff"/>
        <path id="Path_111" data-name="Path 111" d="M487.022,1570.753a.72.72,0,0,0-.294-.2,1.1,1.1,0,0,0-.226-.047c-.191-.025-.408-.054-.455-.28-.032-.15.1-.267.24-.314a.634.634,0,0,1,.191-.025h.37v-.238c-.065,0-.13,0-.2-.007a1.568,1.568,0,0,0-.612.051.63.63,0,0,0-.272.184.486.486,0,0,0,0,.631.717.717,0,0,0,.294.2,1.02,1.02,0,0,0,.26.058l.022,0a.459.459,0,0,1,.323.119.236.236,0,0,1,.054.292.567.567,0,0,1-.536.224h-.4v.249c.074.007.577,0,.644-.007a.868.868,0,0,0,.6-.263.48.48,0,0,0,.1-.433.463.463,0,0,0-.1-.195" transform="translate(-477.598 -1561.528)" fill="#fff"/>
        <path id="Path_112" data-name="Path 112" d="M40.815,1542.663l-.994-1.963H39.4v2.537h.352v-1.815l.927,1.815h.189l.931-1.875.07-.13v2h.377V1540.7h-.413l-.98,1.97h-.036Z" transform="translate(-39.4 -1533.115)" fill="#fff"/>
        <path id="Path_113" data-name="Path 113" d="M1151.755,1541.979h.9v-.195h-.9v-.866h1.351v-.218H1151.4v2.537h1.707v-.186h-1.351Z" transform="translate(-1131.336 -1533.115)" fill="#fff"/>
        <path id="Path_114" data-name="Path 114" d="M587.275,1544.48a.547.547,0,0,1-.1-.206,1.417,1.417,0,0,1-.032-.319l0-.834h.567v-.249h-.567l0-.572H586.8l0,1.671.005.061a.863.863,0,0,0,.144.518.707.707,0,0,0,.285.195,1.1,1.1,0,0,0,.393.063h.153v-.186h-.137a.724.724,0,0,1-.209-.032.362.362,0,0,1-.161-.11" transform="translate(-576.923 -1534.686)" fill="#fff"/>
        <path id="Path_115" data-name="Path 115" d="M665.705,1574.816l-.005.065,0,1.059h.352l0-1.045a1.416,1.416,0,0,1,.034-.334.579.579,0,0,1,.1-.215.348.348,0,0,1,.17-.112.764.764,0,0,1,.222-.031h.152v-.2l-.18,0a1.207,1.207,0,0,0-.4.067.738.738,0,0,0-.3.2.918.918,0,0,0-.152.543" transform="translate(-654.399 -1565.814)" fill="#fff"/>
        <path id="Path_116" data-name="Path 116" d="M1900.071,1574.163a1.047,1.047,0,0,0-.328-.061l-.013,0h-.2l-.011,0a1.047,1.047,0,0,0-.328.061.68.68,0,0,0-.28.191.91.91,0,0,0-.213.646v.137a.922.922,0,0,0,.213.646.693.693,0,0,0,.28.189,1,1,0,0,0,.328.061h.222a1.058,1.058,0,0,0,.328-.061.693.693,0,0,0,.28-.189.928.928,0,0,0,.213-.646V1575a.922.922,0,0,0-.213-.646.724.724,0,0,0-.28-.191m.106,1.238a.625.625,0,0,1-.1.262.457.457,0,0,1-.37.189h-.146c-.381,0-.462-.39-.48-.558a1.238,1.238,0,0,1,.146-.866.46.46,0,0,1,.334-.146h.144c.372,0,.458.375.478.536a1.906,1.906,0,0,1,0,.583" transform="translate(-1865.152 -1565.912)" fill="#fff"/>
        <path id="Path_117" data-name="Path 117" d="M1630.6,1574.842l.013.245a.9.9,0,0,0,.207.493.71.71,0,0,0,.292.2,1.1,1.1,0,0,0,.168.043,1.958,1.958,0,0,0,.352.023.849.849,0,0,0,.193-.013l0,0a1.5,1.5,0,0,0,.195-.052.8.8,0,0,0,.137-.07l.02-.013v.143h.366V1573.9h-1.079l-.011,0a1.093,1.093,0,0,0-.343.065.739.739,0,0,0-.292.2.973.973,0,0,0-.222.677m.42-.272a.478.478,0,0,1,.476-.476h.684v.929l0,.151a.493.493,0,0,1-.5.476h-.184a.477.477,0,0,1-.476-.476s-.014-.15-.014-.3a2.973,2.973,0,0,1,.014-.3" transform="translate(-1601.889 -1565.716)" fill="#fff"/>
        <path id="Path_118" data-name="Path 118" d="M1771.437,1544.688a.355.355,0,0,1-.162-.108.546.546,0,0,1-.1-.206,1.406,1.406,0,0,1-.032-.319l0-.866h.567v-.217h-.567l0-.572h-.336l0,1.671.005.061a.868.868,0,0,0,.144.518.706.706,0,0,0,.285.195,1.1,1.1,0,0,0,.393.063h.153v-.188h-.137a.658.658,0,0,1-.208-.032" transform="translate(-1739.56 -1534.784)" fill="#fff"/>
        <path id="Path_119" data-name="Path 119" d="M905.875,1573.865a1.055,1.055,0,0,0-.33-.063l-.013,0h-.2l-.009,0a1.011,1.011,0,0,0-.33.063.68.68,0,0,0-.28.191.924.924,0,0,0-.213.648v.139a.924.924,0,0,0,.213.648.7.7,0,0,0,.28.191,1.012,1.012,0,0,0,.33.061h.222a1.073,1.073,0,0,0,.33-.061.679.679,0,0,0,.28-.191.93.93,0,0,0,.213-.648v-.139a.924.924,0,0,0-.213-.648.7.7,0,0,0-.28-.191m.1,1.241a.671.671,0,0,1-.1.264.461.461,0,0,1-.372.189h-.146c-.383,0-.464-.392-.482-.559a1.249,1.249,0,0,1,.146-.87.458.458,0,0,1,.336-.146h.146c.373,0,.46.377.48.538a1.986,1.986,0,0,1-.005.584" transform="translate(-888.891 -1565.617)" fill="#fff"/>
        <path id="Path_120" data-name="Path 120" d="M296.06,1574.165a1.107,1.107,0,0,0-.336-.063h-.013v0H294.7v1.938h.357v-1.75h.669a.468.468,0,0,1,.467.467v1.281h.364l0-1.018a.948.948,0,0,0-.217-.66.722.722,0,0,0-.285-.193" transform="translate(-290.094 -1565.912)" fill="#fff"/>
        <path id="Path_121" data-name="Path 121" d="M1504.721,1121.142a.321.321,0,1,0-.321-.321.322.322,0,0,0,.321.321" transform="translate(-1477.966 -1120.496)" fill="#fff"/>
        <path id="Path_122" data-name="Path 122" d="M1829.971,1194.3l-.005,2.586a1.827,1.827,0,0,1-.043.422.722.722,0,0,1-.128.267.445.445,0,0,1-.206.137.871.871,0,0,1-.276.038h-.013l.029.321h.011a1.523,1.523,0,0,0,.541-.09.988.988,0,0,0,.4-.271,1.394,1.394,0,0,0,.3-.8l-.005-2.605h-.6Z" transform="translate(-1797.004 -1192.965)" fill="#fff"/>
        <rect id="Rectangle_4" data-name="Rectangle 4" width="0.588" height="3.773" transform="translate(31.387 0.004)" fill="#fff"/>
        <path id="Path_123" data-name="Path 123" d="M1657.871,1194.3h0l-.005,2.586a1.845,1.845,0,0,1-.043.422.724.724,0,0,1-.128.267.445.445,0,0,1-.206.137.871.871,0,0,1-.276.038h-.013l.029.321h.011a1.523,1.523,0,0,0,.541-.09.987.987,0,0,0,.4-.271,1.393,1.393,0,0,0,.3-.8l-.005-2.605h-.6Z" transform="translate(-1628.009 -1192.965)" fill="#fff"/>
        <path id="Path_124" data-name="Path 124" d="M1447.2,1195.565v1.175h3.365V1194.3h-2.1a1.265,1.265,0,0,0-1.265,1.265m2.775-.781v1.445h-2.183v-.722a.723.723,0,0,1,.724-.723Z" transform="translate(-1421.798 -1192.965)" fill="#fff"/>
        <path id="Path_125" data-name="Path 125" d="M1064.021,1121.142a.321.321,0,1,0-.321-.321.322.322,0,0,0,.321.321" transform="translate(-1045.218 -1120.496)" fill="#fff"/>
        <path id="Path_126" data-name="Path 126" d="M260.221,1366.3a.321.321,0,1,0,.321.321.322.322,0,0,0-.321-.321" transform="translate(-255.921 -1361.861)" fill="#fff"/>
        <path id="Path_127" data-name="Path 127" d="M311.721,1366.3a.321.321,0,1,0,.321.321.322.322,0,0,0-.321-.321" transform="translate(-306.492 -1361.861)" fill="#fff"/>
        <path id="Path_128" data-name="Path 128" d="M1115.521,1121.142a.321.321,0,1,0-.321-.321.322.322,0,0,0,.321.321" transform="translate(-1095.789 -1120.496)" fill="#fff"/>
        <path id="Path_129" data-name="Path 129" d="M1556.221,1121.142a.321.321,0,1,0-.321-.321.322.322,0,0,0,.321.321" transform="translate(-1528.537 -1120.496)" fill="#fff"/>
        <path id="Path_130" data-name="Path 130" d="M1866.121,1120.5a.321.321,0,1,0,.321.321.322.322,0,0,0-.321-.321" transform="translate(-1832.845 -1120.496)" fill="#fff"/>
        <path id="Path_131" data-name="Path 131" d="M60.684,1123.562H59.213v-1.929h-.586v1.929H52.75v-.684a.762.762,0,0,1,.761-.761H56.02v-.484H53.461a1.3,1.3,0,0,0-1.3,1.3v.624H47.411v-3.26H46.83v3.26H45.192v-1.929H44.6v1.929H43.49l-.005-.586h0v-.007a1.251,1.251,0,0,0-.386-.974,1.466,1.466,0,0,0-.964-.359H39.808l.007,2.485a1.843,1.843,0,0,1-.043.422.736.736,0,0,1-.126.267.446.446,0,0,1-.206.137l-.04.009v.336a1.348,1.348,0,0,0,.332-.078.967.967,0,0,0,.4-.271,1.394,1.394,0,0,0,.3-.8v-.065H61.29V1120.3h-.606Zm-20.223-1.443h1.747c.025,0,.047.007.07.013a.742.742,0,0,1,.608.729v.7H40.427l0-1.406a.038.038,0,0,1,.038-.04" transform="translate(-39.4 -1120.3)" fill="#fff"/>
        <path id="Path_132" data-name="Path 132" d="M1945.764,1194.3h-2.079a1.284,1.284,0,0,0-1.285,1.285v1.156h2.753v.145a1.827,1.827,0,0,1-.043.422.726.726,0,0,1-.126.265.447.447,0,0,1-.206.137.744.744,0,0,1-.1.023v.328a1.422,1.422,0,0,0,.4-.085.968.968,0,0,0,.4-.271,1.393,1.393,0,0,0,.3-.8Zm-2.03.484h1.424v.02l0,1.426h-2.163v-.7a.745.745,0,0,1,.743-.743" transform="translate(-1908.063 -1192.965)" fill="#fff"/>
        <path id="Path_133" data-name="Path 133" d="M1301.509,1120.5a.009.009,0,0,0-.009.009v3.755a.009.009,0,0,0,.009.009h.57a.009.009,0,0,0,.009-.009v-3.755a.009.009,0,0,0-.009-.009Z" transform="translate(-1278.727 -1120.496)" fill="#fff"/>
      </g>
    </g>
  </g>
</svg>
